<?xml version="1.0" encoding="UTF-8"?>
<svg version="1.1" xmlns="http://www.w3.org/2000/svg" width="512" height="512">
<path d="M0 0 C168.96 0 337.92 0 512 0 C512 168.96 512 337.92 512 512 C343.04 512 174.08 512 0 512 C0 343.04 0 174.08 0 0 Z " fill="#209CEE" transform="translate(0,0)"/>
<path d="M0 0 C1.66675781 0.52787109 1.66675781 0.52787109 3.3671875 1.06640625 C10.77688075 3.65894327 16.93684449 7.02172349 23 12 C23.77085937 12.62261719 24.54171875 13.24523437 25.3359375 13.88671875 C36.0754952 23.50833614 42.27120338 38.48667442 43.17138672 52.70751953 C44.21068808 75.54625933 44.21068808 75.54625933 39 86 C38.34644531 87.40378906 38.34644531 87.40378906 37.6796875 88.8359375 C30.15106475 103.85204299 17.27357486 113.83161608 1.48046875 119.1953125 C-1.66964284 120.17140341 -4.8248421 121.10916416 -8 122 C-4.25981001 127.02991068 0.14556732 130.66271908 5.0234375 134.57421875 C12.65576527 140.79426539 19.79225549 147.3514124 26 155 C26.76957031 155.8971875 27.53914062 156.794375 28.33203125 157.71875 C47.75431882 180.99230105 51.47546789 208.65937917 50 238 C49.37055026 243.60773663 47.95718033 248.70144931 46 254 C45.649375 255.02996094 45.29875 256.05992187 44.9375 257.12109375 C34.31721304 285.47873497 9.96348002 305.91308074 -16.74291992 318.4453125 C-49.07435669 333.01461363 -87.27415906 338.29689064 -121.20068359 325.87817383 C-141.2256883 318.04042459 -156.14920394 304.70311351 -165.23828125 285.24609375 C-174.49878601 264.01816747 -174.84205905 238.17166951 -166.74291992 216.6184082 C-159.25191042 197.79500795 -146.54335089 178.71619793 -127.88671875 169.69140625 C-121.23276122 167.25299945 -112.35985003 166.48196641 -105.6328125 168.82421875 C-103.11452175 170.22965488 -101.30886209 171.38227582 -100 174 C-98.95904558 186.51147143 -101.30880968 198.90688153 -105.1875 210.75 C-107.30731119 218.35349265 -107.43916783 225.81987248 -107.5 233.6875 C-107.51828857 234.91114258 -107.53657715 236.13478516 -107.55541992 237.39550781 C-107.48481944 247.95848036 -105.55952791 258.01806364 -98.7109375 266.37890625 C-91.88838424 272.84319758 -83.6984925 273.18132488 -74.8125 273.1875 C-73.90435547 273.19974609 -72.99621094 273.21199219 -72.06054688 273.22460938 C-58.02736033 273.25474507 -45.36457351 269.21405888 -35.12890625 259.33984375 C-24.34030349 247.48227852 -24.29485979 233.80284956 -24.82519531 218.53076172 C-25.17553907 213.45860616 -26.60083542 209.43308321 -29 205 C-29.46277344 204.06800781 -29.92554688 203.13601563 -30.40234375 202.17578125 C-38.93739578 186.21168638 -53.3305378 171.73923266 -67.4375 160.5625 C-88.23579427 143.99125229 -108.05210405 120.16937089 -112 93 C-113.38314486 68.85887577 -111.94802895 46.38151471 -95.87109375 27.08203125 C-71.99335002 0.51243332 -34.81480879 -11.31708536 0 0 Z " fill="#FDFEFE" transform="translate(317,92)"/>
<path d="M0 0 C4.08497657 4.46794312 6.23249347 7.94822289 6.375 14 C5.40922282 34.10023754 -4.29067506 51.75724679 -19 65.1875 C-35.02269935 52.01328053 -47.05614201 37.41024675 -55 18.1875 C-55.38800781 17.2903125 -55.77601563 16.393125 -56.17578125 15.46875 C-57.4738552 11.87597661 -57.1315093 9.83347441 -56 6.1875 C-43.04223719 -9.49994381 -16.39804642 -9.90715304 0 0 Z " fill="#219CEE" transform="translate(313,137.8125)"/>
<path d="M0 0 C13.53 0 27.06 0 41 0 C41 13.53 41 27.06 41 41 C39.38897386 37.77794772 38.09649079 34.66489916 36.8125 31.3125 C30.99481758 17.32964928 20.70813891 8.86955879 7 3 C4.65968578 2.17794005 2.42152494 1.55034658 0 1 C0 0.67 0 0.34 0 0 Z " fill="#000000" transform="translate(471,0)"/>
<path d="M0 0 C1.61102614 3.22205228 2.90350921 6.33510084 4.1875 9.6875 C10.00518242 23.67035072 20.29186109 32.13044121 34 38 C36.34031422 38.82205995 38.57847506 39.44965342 41 40 C41 40.33 41 40.66 41 41 C27.47 41 13.94 41 0 41 C0 27.47 0 13.94 0 0 Z " fill="#000000" transform="translate(0,471)"/>
<path d="M0 0 C13.53 0 27.06 0 41 0 C37.77794772 1.61102614 34.66489916 2.90350921 31.3125 4.1875 C18.71232801 9.4388475 9.22889841 18.80051593 3.96484375 31.40234375 C2.78548854 34.57753084 1.80417774 37.71018197 1 41 C0.67 41 0.34 41 0 41 C0 27.47 0 13.94 0 0 Z " fill="#000000" transform="translate(0,0)"/>
<path d="M0 0 C0.33 0 0.66 0 1 0 C1 13.53 1 27.06 1 41 C-12.53 41 -26.06 41 -40 41 C-36.76284016 39.38142008 -33.61375469 38.05715856 -30.25 36.75 C-24.78388069 34.47853851 -20.44415797 31.88380762 -16 28 C-15.40703125 27.52304687 -14.8140625 27.04609375 -14.203125 26.5546875 C-6.56114327 19.82568589 -2.52693015 9.66396702 0 0 Z " fill="#000000" transform="translate(511,471)"/>
</svg>
